<?xml version="1.0"?>
<!-- Generated by SVGo -->
<svg width="314.802mm" height="124.302mm"
     viewBox="0.000 0.000 314.802 124.302"
     xmlns="http://www.w3.org/2000/svg" 
     xmlns:xlink="http://www.w3.org/1999/xlink">
<polygon points="309.802,119.301 5.001,119.301 5.001,5.001 309.802,5.001" style="fill:none;stroke-width:0.050000mm;stroke:black"/>
<polygon points="148.019,102.775 148.019,107.476 108.394,107.476 108.394,104.245 101.644,104.245 101.644,107.476 100.819,107.476 100.819,110.275 101.644,110.275 101.644,116.545 103.369,116.545 103.369,117.745 106.669,117.745 106.669,116.545 108.394,116.545 108.394,112.075 148.019,112.075 148.019,116.775 162.019,116.775 162.019,112.075 201.644,112.075 201.644,116.545 203.369,116.545 203.369,117.745 206.669,117.745 206.669,116.545 208.394,116.545 208.394,110.275 209.219,110.275 209.219,107.476 208.394,107.476 208.394,104.245 201.644,104.245 201.644,107.476 162.019,107.476 162.019,102.775" style="fill:none;stroke-width:0.050000mm;stroke:black"/>
<polygon points="7.526,102.775 7.526,116.775 21.526,116.775 21.526,102.775" style="fill:none;stroke-width:0.050000mm;stroke:black"/>
<polygon points="28.957,102.775 28.957,116.775 42.957,116.775 42.957,102.775" style="fill:none;stroke-width:0.050000mm;stroke:black"/>
<polygon points="52.769,102.775 52.769,116.775 66.769,116.775 66.769,102.775" style="fill:none;stroke-width:0.050000mm;stroke:black"/>
<polygon points="76.582,102.775 76.582,116.775 90.582,116.775 90.582,102.775" style="fill:none;stroke-width:0.050000mm;stroke:black"/>
<polygon points="217.076,102.775 217.076,116.775 231.076,116.775 231.076,102.775" style="fill:none;stroke-width:0.050000mm;stroke:black"/>
<polygon points="236.126,102.775 236.126,116.775 250.126,116.775 250.126,102.775" style="fill:none;stroke-width:0.050000mm;stroke:black"/>
<polygon points="255.176,102.775 255.176,116.775 269.176,116.775 269.176,102.775" style="fill:none;stroke-width:0.050000mm;stroke:black"/>
<polygon points="274.226,102.775 274.226,116.775 288.226,116.775 288.226,102.775" style="fill:none;stroke-width:0.050000mm;stroke:black"/>
<polygon points="293.276,102.775 293.276,116.775 307.276,116.775 307.276,102.775" style="fill:none;stroke-width:0.050000mm;stroke:black"/>
<polygon points="19.432,83.726 19.432,88.426 17.907,88.426 17.907,85.196 11.157,85.196 11.157,88.426 10.332,88.426 10.332,91.226 11.157,91.226 11.157,97.495 12.882,97.495 12.882,98.696 16.182,98.696 16.182,97.495 17.907,97.495 17.907,93.025 19.432,93.025 19.432,97.726 33.432,97.726 33.432,93.025 34.957,93.025 34.957,97.495 36.682,97.495 36.682,98.696 39.982,98.696 39.982,97.495 41.707,97.495 41.707,91.226 42.532,91.226 42.532,88.426 41.707,88.426 41.707,85.196 34.957,85.196 34.957,88.426 33.432,88.426 33.432,83.726" style="fill:none;stroke-width:0.050000mm;stroke:black"/>
<polygon points="50.388,83.726 50.388,97.726 64.388,97.726 64.388,83.726" style="fill:none;stroke-width:0.050000mm;stroke:black"/>
<polygon points="69.438,83.726 69.438,97.726 83.438,97.726 83.438,83.726" style="fill:none;stroke-width:0.050000mm;stroke:black"/>
<polygon points="88.488,83.726 88.488,97.726 102.488,97.726 102.488,83.726" style="fill:none;stroke-width:0.050000mm;stroke:black"/>
<polygon points="107.538,83.726 107.538,97.726 121.538,97.726 121.538,83.726" style="fill:none;stroke-width:0.050000mm;stroke:black"/>
<polygon points="126.588,83.726 126.588,97.726 140.588,97.726 140.588,83.726" style="fill:none;stroke-width:0.050000mm;stroke:black"/>
<polygon points="145.638,83.726 145.638,97.726 159.638,97.726 159.638,83.726" style="fill:none;stroke-width:0.050000mm;stroke:black"/>
<polygon points="164.688,83.726 164.688,97.726 178.688,97.726 178.688,83.726" style="fill:none;stroke-width:0.050000mm;stroke:black"/>
<polygon points="183.738,83.726 183.738,97.726 197.738,97.726 197.738,83.726" style="fill:none;stroke-width:0.050000mm;stroke:black"/>
<polygon points="202.788,83.726 202.788,97.726 216.788,97.726 216.788,83.726" style="fill:none;stroke-width:0.050000mm;stroke:black"/>
<polygon points="221.838,83.726 221.838,97.726 235.838,97.726 235.838,83.726" style="fill:none;stroke-width:0.050000mm;stroke:black"/>
<polygon points="248.032,83.726 248.032,97.726 262.032,97.726 262.032,83.726" style="fill:none;stroke-width:0.050000mm;stroke:black"/>
<polygon points="274.226,83.726 274.226,97.726 288.226,97.726 288.226,83.726" style="fill:none;stroke-width:0.050000mm;stroke:black"/>
<polygon points="293.276,83.726 293.276,97.726 307.276,97.726 307.276,83.726" style="fill:none;stroke-width:0.050000mm;stroke:black"/>
<polygon points="262.319,64.676 262.319,69.376 260.794,69.376 260.794,66.146 254.044,66.146 254.044,69.376 253.219,69.376 253.219,72.176 254.044,72.176 254.044,78.446 255.769,78.446 255.769,79.646 259.068,79.646 259.068,78.446 260.794,78.446 260.794,73.976 262.319,73.976 262.319,78.676 276.319,78.676 276.319,73.976 277.844,73.976 277.844,78.446 279.569,78.446 279.569,79.646 282.869,79.646 282.869,78.446 284.594,78.446 284.594,72.176 285.419,72.176 285.419,69.376 284.594,69.376 284.594,66.146 277.844,66.146 277.844,69.376 276.319,69.376 276.319,64.676" style="fill:none;stroke-width:0.050000mm;stroke:black"/>
<polygon points="14.669,64.676 14.669,78.676 28.669,78.676 28.669,64.676" style="fill:none;stroke-width:0.050000mm;stroke:black"/>
<polygon points="40.863,64.676 40.863,78.676 54.863,78.676 54.863,64.676" style="fill:none;stroke-width:0.050000mm;stroke:black"/>
<polygon points="59.913,64.676 59.913,78.676 73.913,78.676 73.913,64.676" style="fill:none;stroke-width:0.050000mm;stroke:black"/>
<polygon points="78.963,64.676 78.963,78.676 92.963,78.676 92.963,64.676" style="fill:none;stroke-width:0.050000mm;stroke:black"/>
<polygon points="98.013,64.676 98.013,78.676 112.013,78.676 112.013,64.676" style="fill:none;stroke-width:0.050000mm;stroke:black"/>
<polygon points="117.063,64.676 117.063,78.676 131.063,78.676 131.063,64.676" style="fill:none;stroke-width:0.050000mm;stroke:black"/>
<polygon points="136.113,64.676 136.113,78.676 150.113,78.676 150.113,64.676" style="fill:none;stroke-width:0.050000mm;stroke:black"/>
<polygon points="155.163,64.676 155.163,78.676 169.163,78.676 169.163,64.676" style="fill:none;stroke-width:0.050000mm;stroke:black"/>
<polygon points="174.213,64.676 174.213,78.676 188.213,78.676 188.213,64.676" style="fill:none;stroke-width:0.050000mm;stroke:black"/>
<polygon points="193.263,64.676 193.263,78.676 207.263,78.676 207.263,64.676" style="fill:none;stroke-width:0.050000mm;stroke:black"/>
<polygon points="212.313,64.676 212.313,78.676 226.313,78.676 226.313,64.676" style="fill:none;stroke-width:0.050000mm;stroke:black"/>
<polygon points="231.363,64.676 231.363,78.676 245.363,78.676 245.363,64.676" style="fill:none;stroke-width:0.050000mm;stroke:black"/>
<polygon points="293.276,64.676 293.276,78.676 307.276,78.676 307.276,64.676" style="fill:none;stroke-width:0.050000mm;stroke:black"/>
<polygon points="12.288,45.626 12.288,59.626 26.288,59.626 26.288,45.626" style="fill:none;stroke-width:0.050000mm;stroke:black"/>
<polygon points="36.101,45.626 36.101,59.626 50.101,59.626 50.101,45.626" style="fill:none;stroke-width:0.050000mm;stroke:black"/>
<polygon points="55.151,45.626 55.151,59.626 69.151,59.626 69.151,45.626" style="fill:none;stroke-width:0.050000mm;stroke:black"/>
<polygon points="74.201,45.626 74.201,59.626 88.201,59.626 88.201,45.626" style="fill:none;stroke-width:0.050000mm;stroke:black"/>
<polygon points="93.251,45.626 93.251,59.626 107.251,59.626 107.251,45.626" style="fill:none;stroke-width:0.050000mm;stroke:black"/>
<polygon points="112.301,45.626 112.301,59.626 126.301,59.626 126.301,45.626" style="fill:none;stroke-width:0.050000mm;stroke:black"/>
<polygon points="131.351,45.626 131.351,59.626 145.351,59.626 145.351,45.626" style="fill:none;stroke-width:0.050000mm;stroke:black"/>
<polygon points="150.401,45.626 150.401,59.626 164.401,59.626 164.401,45.626" style="fill:none;stroke-width:0.050000mm;stroke:black"/>
<polygon points="169.451,45.626 169.451,59.626 183.451,59.626 183.451,45.626" style="fill:none;stroke-width:0.050000mm;stroke:black"/>
<polygon points="188.501,45.626 188.501,59.626 202.501,59.626 202.501,45.626" style="fill:none;stroke-width:0.050000mm;stroke:black"/>
<polygon points="207.551,45.626 207.551,59.626 221.551,59.626 221.551,45.626" style="fill:none;stroke-width:0.050000mm;stroke:black"/>
<polygon points="226.601,45.626 226.601,59.626 240.601,59.626 240.601,45.626" style="fill:none;stroke-width:0.050000mm;stroke:black"/>
<polygon points="245.651,45.626 245.651,59.626 259.650,59.626 259.650,45.626" style="fill:none;stroke-width:0.050000mm;stroke:black"/>
<polygon points="269.463,45.626 269.463,59.626 283.463,59.626 283.463,45.626" style="fill:none;stroke-width:0.050000mm;stroke:black"/>
<polygon points="293.276,45.626 293.276,59.626 307.276,59.626 307.276,45.626" style="fill:none;stroke-width:0.050000mm;stroke:black"/>
<polygon points="264.701,26.576 264.701,31.276 263.176,31.276 263.176,28.046 256.426,28.046 256.426,31.276 255.601,31.276 255.601,34.076 256.426,34.076 256.426,40.346 258.150,40.346 258.150,41.546 261.451,41.546 261.451,40.346 263.176,40.346 263.176,35.876 264.701,35.876 264.701,40.576 278.701,40.576 278.701,35.876 280.226,35.876 280.226,40.346 281.951,40.346 281.951,41.546 285.251,41.546 285.251,40.346 286.976,40.346 286.976,34.076 287.801,34.076 287.801,31.276 286.976,31.276 286.976,28.046 280.226,28.046 280.226,31.276 278.701,31.276 278.701,26.576" style="fill:none;stroke-width:0.050000mm;stroke:black"/>
<polygon points="7.526,26.576 7.526,40.576 21.526,40.576 21.526,26.576" style="fill:none;stroke-width:0.050000mm;stroke:black"/>
<polygon points="26.576,26.576 26.576,40.576 40.576,40.576 40.576,26.576" style="fill:none;stroke-width:0.050000mm;stroke:black"/>
<polygon points="45.626,26.576 45.626,40.576 59.626,40.576 59.626,26.576" style="fill:none;stroke-width:0.050000mm;stroke:black"/>
<polygon points="64.676,26.576 64.676,40.576 78.676,40.576 78.676,26.576" style="fill:none;stroke-width:0.050000mm;stroke:black"/>
<polygon points="83.726,26.576 83.726,40.576 97.726,40.576 97.726,26.576" style="fill:none;stroke-width:0.050000mm;stroke:black"/>
<polygon points="102.775,26.576 102.775,40.576 116.775,40.576 116.775,26.576" style="fill:none;stroke-width:0.050000mm;stroke:black"/>
<polygon points="121.825,26.576 121.825,40.576 135.826,40.576 135.826,26.576" style="fill:none;stroke-width:0.050000mm;stroke:black"/>
<polygon points="140.876,26.576 140.876,40.576 154.876,40.576 154.876,26.576" style="fill:none;stroke-width:0.050000mm;stroke:black"/>
<polygon points="159.926,26.576 159.926,40.576 173.926,40.576 173.926,26.576" style="fill:none;stroke-width:0.050000mm;stroke:black"/>
<polygon points="178.976,26.576 178.976,40.576 192.976,40.576 192.976,26.576" style="fill:none;stroke-width:0.050000mm;stroke:black"/>
<polygon points="198.026,26.576 198.026,40.576 212.026,40.576 212.026,26.576" style="fill:none;stroke-width:0.050000mm;stroke:black"/>
<polygon points="217.076,26.576 217.076,40.576 231.076,40.576 231.076,26.576" style="fill:none;stroke-width:0.050000mm;stroke:black"/>
<polygon points="236.126,26.576 236.126,40.576 250.126,40.576 250.126,26.576" style="fill:none;stroke-width:0.050000mm;stroke:black"/>
<polygon points="293.276,26.576 293.276,40.576 307.276,40.576 307.276,26.576" style="fill:none;stroke-width:0.050000mm;stroke:black"/>
<polygon points="7.526,7.526 7.526,21.526 21.526,21.526 21.526,7.526" style="fill:none;stroke-width:0.050000mm;stroke:black"/>
<polygon points="26.576,7.526 26.576,21.526 40.576,21.526 40.576,7.526" style="fill:none;stroke-width:0.050000mm;stroke:black"/>
<polygon points="45.626,7.526 45.626,21.526 59.626,21.526 59.626,7.526" style="fill:none;stroke-width:0.050000mm;stroke:black"/>
<polygon points="64.676,7.526 64.676,21.526 78.676,21.526 78.676,7.526" style="fill:none;stroke-width:0.050000mm;stroke:black"/>
<polygon points="83.726,7.526 83.726,21.526 97.726,21.526 97.726,7.526" style="fill:none;stroke-width:0.050000mm;stroke:black"/>
<polygon points="102.775,7.526 102.775,21.526 116.775,21.526 116.775,7.526" style="fill:none;stroke-width:0.050000mm;stroke:black"/>
<polygon points="121.825,7.526 121.825,21.526 135.826,21.526 135.826,7.526" style="fill:none;stroke-width:0.050000mm;stroke:black"/>
<polygon points="140.876,7.526 140.876,21.526 154.876,21.526 154.876,7.526" style="fill:none;stroke-width:0.050000mm;stroke:black"/>
<polygon points="159.926,7.526 159.926,21.526 173.926,21.526 173.926,7.526" style="fill:none;stroke-width:0.050000mm;stroke:black"/>
<polygon points="178.976,7.526 178.976,21.526 192.976,21.526 192.976,7.526" style="fill:none;stroke-width:0.050000mm;stroke:black"/>
<polygon points="198.026,7.526 198.026,21.526 212.026,21.526 212.026,7.526" style="fill:none;stroke-width:0.050000mm;stroke:black"/>
<polygon points="217.076,7.526 217.076,21.526 231.076,21.526 231.076,7.526" style="fill:none;stroke-width:0.050000mm;stroke:black"/>
<polygon points="236.126,7.526 236.126,21.526 250.126,21.526 250.126,7.526" style="fill:none;stroke-width:0.050000mm;stroke:black"/>
<polygon points="255.176,7.526 255.176,21.526 269.176,21.526 269.176,7.526" style="fill:none;stroke-width:0.050000mm;stroke:black"/>
<polygon points="274.226,7.526 274.226,21.526 288.226,21.526 288.226,7.526" style="fill:none;stroke-width:0.050000mm;stroke:black"/>
<polygon points="293.276,7.526 293.276,21.526 307.276,21.526 307.276,7.526" style="fill:none;stroke-width:0.050000mm;stroke:black"/>
</svg>
